<svg width="300" height="300" viewBox="0 0 300 300" fill="none" xmlns="http://www.w3.org/2000/svg">
<path d="M0 100C0 44.7715 44.7715 0 100 0H200C255.228 0 300 44.7715 300 100V200C300 255.228 255.228 300 200 300H100C44.7715 300 0 255.228 0 200V100Z" fill="#B3E5FC"/>
<path d="M104.962 43.4845C77.2908 28.2239 45.4542 55.3293 56.1056 85.0805L108.697 231.978C114.824 249.092 131.042 260.511 149.219 260.511C167.24 260.511 183.352 249.286 189.595 232.381L243.497 86.4202C254.689 56.1125 222.477 28.0431 193.986 43.2764C184.638 48.2743 178.047 57.2266 176.051 67.6372L162.91 136.165C162.011 140.855 160.777 145.475 159.217 149.989L153.877 165.446C152.307 169.99 145.857 169.917 144.389 165.34L137.295 143.209L122.033 66.801C120.054 56.894 113.809 48.3633 104.962 43.4845Z" fill="#29B6F6"/>
</svg>
